<svg width="820" height="520" viewBox="0 0 820 520" fill="none" xmlns="http://www.w3.org/2000/svg">
  <rect width="820" height="520" fill="white" fill-opacity="0"/>
  <g opacity="0.95">
    <path d="M44 314L144 226L206 268V110L286 42V268L414 354" stroke="#1E4F81" stroke-width="10" stroke-linecap="round" stroke-linejoin="round"/>
    <path d="M118 314L206 238L280 294" stroke="#1E4F81" stroke-width="10" stroke-linecap="round" stroke-linejoin="round"/>
    <path d="M232 118H262V180H232V118Z" fill="#1E4F81"/>
    <rect x="104" y="318" width="122" height="88" rx="4" fill="#1E4F81"/>
    <rect x="114" y="328" width="44" height="30" fill="#F7F9FC"/>
    <rect x="166" y="328" width="16" height="68" fill="#F7F9FC"/>
    <rect x="188" y="328" width="28" height="68" fill="#D24B43"/>
    <rect x="114" y="364" width="44" height="32" fill="#F7F9FC"/>
    <path d="M120 338H152M120 348H152M120 358H152" stroke="#D24B43" stroke-width="4"/>
    <path d="M126 334L129 341L136 341L130.5 345.5L133 353L126 348.5L119 353L121.5 345.5L116 341L123 341L126 334Z" fill="#F7F9FC"/>
    <path d="M142 334L145 341L152 341L146.5 345.5L149 353L142 348.5L135 353L137.5 345.5L132 341L139 341L142 334Z" fill="#F7F9FC"/>
    <path d="M126 350L129 357L136 357L130.5 361.5L133 369L126 364.5L119 369L121.5 361.5L116 357L123 357L126 350Z" fill="#F7F9FC"/>
    <path d="M142 350L145 357L152 357L146.5 361.5L149 369L142 364.5L135 369L137.5 361.5L132 357L139 357L142 350Z" fill="#F7F9FC"/>
    <path d="M126 366L129 373L136 373L130.5 377.5L133 385L126 380.5L119 385L121.5 377.5L116 373L123 373L126 366Z" fill="#F7F9FC"/>
    <path d="M142 366L145 373L152 373L146.5 377.5L149 385L142 380.5L135 385L137.5 377.5L132 373L139 373L142 366Z" fill="#F7F9FC"/>
  </g>
  <g opacity="0.95">
    <path d="M470 154L580 64L690 154" stroke="#1E4F81" stroke-width="12" stroke-linecap="round" stroke-linejoin="round"/>
    <path d="M664 154V88H706V188" stroke="#1E4F81" stroke-width="12" stroke-linecap="round" stroke-linejoin="round"/>
    <text x="490" y="178" fill="#1E4F81" font-family="Arial, Helvetica, sans-serif" font-size="76" font-weight="500">AL</text>
    <text x="474" y="258" fill="#1E4F81" font-family="Arial, Helvetica, sans-serif" font-size="86" font-weight="500">AVENUES</text>
    <text x="474" y="346" fill="#1E4F81" font-family="Arial, Helvetica, sans-serif" font-size="86" font-weight="500">REALTY</text>
  </g>
</svg>
